<?xml version="1.0" encoding="utf-8"?>
<!-- Generator: Adobe Illustrator 16.0.4, SVG Export Plug-In . SVG Version: 6.00 Build 0)  -->
<!DOCTYPE svg PUBLIC "-//W3C//DTD SVG 1.1//EN" "http://www.w3.org/Graphics/SVG/1.1/DTD/svg11.dtd">
<svg version="1.1" id="Layer_1" xmlns="http://www.w3.org/2000/svg" xmlns:xlink="http://www.w3.org/1999/xlink" x="0px" y="0px"
	 width="158px" height="124px" viewBox="0 -34.5 158 124" enable-background="new 0 -34.5 158 124" xml:space="preserve">
<path fill="#8BC53F" d="M71.685,47.751c-6.865-0.409-10.453-2.482-12.296-4.784c0.353-5.602,1.377-12.581,4.253-18.914
	c1.648-3.626,3.99-6.91,6.861-9.323c3.139-2.875,6.04-5.09,8.962-6.915c5.769-3.58,10.829-5.14,12.431-5.689
	c1.619-0.523,4.523-1.508,8.039-2.604c3.504-1.006,7.747-2.461,11.37-4.24c7.427-3.404,13.582-7.244,13.572-7.245
	c0.013,0.001-6.569,3.059-14.216,5.595c-3.858,1.379-7.801,2.286-11.48,3c-3.621,0.78-6.68,1.575-8.363,2.12
	C87.67-0.146,68.802,4.914,59.165,21.875c-2.179,4.331-3.547,8.812-4.432,13.011c-2.18-1.029-4.891-3.024-5.629-6.715
	c-1.287-6.432-0.571-25.727,20.295-36.445c20.867-10.719,44.164-8.577,55.312-11.72c11.148-3.144,15.579-10.291,15.579-10.291
	S131.001,42.464,71.685,47.751z"/>
<g>
	<path d="M15.612,73.557c0-1.792-0.032-3.296-0.128-4.64h3.392l0.16,2.304h0.096c0.768-1.216,2.176-2.655,4.799-2.655
		c2.048,0,3.648,1.151,4.32,2.88h0.064c0.544-0.864,1.184-1.504,1.92-1.952c0.864-0.608,1.856-0.928,3.136-0.928
		c2.592,0,5.215,1.76,5.215,6.751V84.5h-3.839v-8.607c0-2.592-0.896-4.128-2.784-4.128c-1.344,0-2.336,0.96-2.752,2.08
		c-0.096,0.384-0.192,0.864-0.192,1.312V84.5h-3.84v-9.023c0-2.176-0.864-3.712-2.688-3.712c-1.472,0-2.464,1.152-2.815,2.24
		c-0.16,0.384-0.224,0.832-0.224,1.28V84.5h-3.84V73.557z"/>
	<path d="M51.515,84.5l-0.256-1.728h-0.096c-0.96,1.216-2.592,2.079-4.608,2.079c-3.136,0-4.896-2.271-4.896-4.64
		c0-3.936,3.488-5.919,9.248-5.887v-0.257c0-1.023-0.416-2.72-3.168-2.72c-1.536,0-3.136,0.48-4.192,1.152l-0.768-2.56
		c1.152-0.704,3.167-1.376,5.631-1.376c4.992,0,6.432,3.168,6.432,6.56v5.631c0,1.408,0.064,2.784,0.224,3.744H51.515z
		 M51.003,76.885c-2.784-0.064-5.439,0.544-5.439,2.911c0,1.536,0.992,2.24,2.24,2.24c1.568,0,2.72-1.023,3.072-2.144
		c0.096-0.288,0.128-0.608,0.128-0.864V76.885z"/>
	<path d="M70.458,84.021c-0.832,0.384-2.464,0.8-4.416,0.8c-4.864,0-8.031-3.104-8.031-7.936c0-4.672,3.2-8.319,8.671-8.319
		c1.439,0,2.912,0.319,3.808,0.735l-0.704,2.944c-0.64-0.288-1.568-0.608-2.976-0.608c-3.008,0-4.8,2.208-4.768,5.056
		c0,3.2,2.08,5.023,4.768,5.023c1.376,0,2.335-0.288,3.104-0.607L70.458,84.021z"/>
	<path d="M73.371,73.94c0-2.111-0.032-3.615-0.128-5.023h3.424l0.128,2.976h0.128c0.768-2.207,2.592-3.327,4.256-3.327
		c0.384,0,0.607,0.031,0.928,0.096v3.712c-0.32-0.064-0.672-0.128-1.152-0.128c-1.888,0-3.167,1.216-3.52,2.976
		c-0.063,0.352-0.128,0.768-0.128,1.216V84.5h-3.936V73.94z"/>
	<path d="M99.29,76.564c0,5.728-4.031,8.287-7.999,8.287c-4.416,0-7.808-3.039-7.808-8.031c0-5.119,3.359-8.255,8.063-8.255
		C96.187,68.565,99.29,71.829,99.29,76.564z M87.547,76.725c0,3.008,1.472,5.279,3.872,5.279c2.239,0,3.808-2.208,3.808-5.344
		c0-2.432-1.088-5.215-3.776-5.215C88.667,71.445,87.547,74.133,87.547,76.725z"/>
	<path d="M105.307,77.812c0.096,2.815,2.304,4.031,4.8,4.031c1.824,0,3.136-0.256,4.319-0.703l0.576,2.72
		c-1.344,0.544-3.199,0.96-5.439,0.96c-5.056,0-8.031-3.104-8.031-7.872c0-4.319,2.624-8.383,7.615-8.383
		c5.056,0,6.72,4.159,6.72,7.583c0,0.736-0.064,1.312-0.128,1.664H105.307z M112.154,75.061c0.032-1.439-0.608-3.808-3.231-3.808
		c-2.433,0-3.456,2.208-3.616,3.808H112.154z"/>
	<path d="M130.49,84.021c-0.832,0.384-2.464,0.8-4.416,0.8c-4.863,0-8.031-3.104-8.031-7.936c0-4.672,3.199-8.319,8.671-8.319
		c1.44,0,2.912,0.319,3.808,0.735l-0.703,2.944c-0.641-0.288-1.568-0.608-2.977-0.608c-3.008,0-4.799,2.208-4.768,5.056
		c0,3.2,2.08,5.023,4.768,5.023c1.376,0,2.336-0.288,3.104-0.607L130.49,84.021z"/>
	<path d="M147.93,76.564c0,5.728-4.031,8.287-7.999,8.287c-4.416,0-7.808-3.039-7.808-8.031c0-5.119,3.359-8.255,8.063-8.255
		C144.826,68.565,147.93,71.829,147.93,76.564z M136.187,76.725c0,3.008,1.472,5.279,3.872,5.279c2.239,0,3.808-2.208,3.808-5.344
		c0-2.432-1.088-5.215-3.776-5.215C137.307,71.445,136.187,74.133,136.187,76.725z"/>
</g>
</svg>
